<?xml version="1.0" standalone="no"?>
<!DOCTYPE svg PUBLIC "-//W3C//DTD SVG 20010904//EN"
 "http://www.w3.org/TR/2001/REC-SVG-20010904/DTD/svg10.dtd">
<svg version="1.0" xmlns="http://www.w3.org/2000/svg"
 width="260.000000pt" height="260.000000pt" viewBox="0 0 260.000000 260.000000"
 preserveAspectRatio="xMidYMid meet">
<metadata>
Created by potrace 1.14, written by Peter Selinger 2001-2017
</metadata>
<g transform="translate(0.000000,260.000000) scale(0.100000,-0.100000)"
fill="#000000" stroke="none">
<path d="M280 1655 c0 -51 2 -55 23 -55 13 0 32 -6 42 -14 18 -13 18 -22 1
-312 -10 -164 -20 -307 -22 -316 -3 -10 -17 -21 -32 -24 -53 -11 -53 -12 -50
-61 l3 -48 163 -3 163 -3 -3 53 c-2 44 -6 53 -23 56 -11 1 -31 5 -44 8 l-24 5
7 182 c4 100 11 209 14 241 l7 59 79 -184 c44 -101 90 -205 103 -231 l23 -48
59 0 c35 0 62 5 68 13 5 6 51 110 103 230 51 120 94 216 96 214 2 -1 11 -108
20 -236 19 -257 21 -251 -43 -251 l-33 0 0 -55 0 -55 213 2 212 3 0 50 c0 48
-1 49 -33 56 -18 4 -36 10 -39 13 -12 11 -54 629 -44 639 5 5 24 12 43 16 32
7 33 8 33 56 l0 50 -169 0 -169 0 -96 -217 c-53 -120 -99 -218 -102 -218 -3 0
-34 71 -69 158 -35 86 -76 185 -91 220 l-28 62 -181 0 -180 0 0 -55z"/>
<path d="M1420 1656 l0 -54 39 -7 c21 -3 48 -16 59 -28 11 -12 72 -112 136
-223 l116 -201 0 -95 c0 -107 -4 -115 -65 -120 l-40 -3 -3 -52 -3 -53 241 0
241 0 -3 53 -3 52 -40 3 c-61 5 -65 12 -65 124 l0 99 101 177 c146 255 141
249 196 265 l48 14 0 49 0 49 -182 3 -183 2 0 -55 c0 -50 2 -55 23 -55 37 0
72 -24 69 -46 -2 -10 -35 -75 -74 -143 l-71 -123 -78 133 c-44 74 -79 139 -79
146 0 15 32 33 59 33 19 0 21 6 21 55 l0 55 -230 0 -230 0 0 -54z"/>
</g>
</svg>
