<?xml version="1.0" standalone="no"?>
<!DOCTYPE svg PUBLIC "-//W3C//DTD SVG 20010904//EN"
 "http://www.w3.org/TR/2001/REC-SVG-20010904/DTD/svg10.dtd">
<svg version="1.0" xmlns="http://www.w3.org/2000/svg"
 width="260.000000pt" height="260.000000pt" viewBox="0 0 260.000000 260.000000"
 preserveAspectRatio="xMidYMid meet">
<metadata>
Created by potrace 1.11, written by Peter Selinger 2001-2013
</metadata>
<g transform="translate(0.000000,260.000000) scale(0.100000,-0.100000)"
fill="#000000" stroke="none">
<path d="M640 1555 l0 -1046 478 4 c262 2 488 7 502 10 14 4 48 12 75 18 186
42 352 134 487 270 159 160 255 353 287 574 10 70 8 327 -3 375 -3 14 -8 39
-12 55 -28 143 -127 333 -234 451 -139 152 -354 274 -545 310 -22 4 -47 9 -55
12 -8 3 -232 7 -497 9 l-483 5 0 -1047z m966 596 c182 -54 320 -190 381 -375
23 -71 27 -98 27 -216 1 -113 -3 -146 -21 -205 -48 -151 -163 -294 -284 -354
-110 -54 -154 -62 -396 -68 l-223 -6 0 628 0 627 224 -5 c185 -4 235 -9 292
-26z"/>
<path d="M100 1045 l0 -1046 458 2 c435 1 462 2 567 24 156 33 300 95 410 178
57 43 177 167 215 222 31 45 32 47 9 40 -109 -35 -146 -37 -676 -42 l-533 -5
0 836 0 836 -225 0 -225 0 0 -1045z"/>
</g>
</svg>
